<svg width="29" height="19" viewBox="0 0 29 19" fill="none" xmlns="http://www.w3.org/2000/svg">
<g clip-path="url(#clip0_2_2553)">
<path d="M19.5733 19C24.7824 19 29 14.8576 29 9.75635H19.5733V19Z" fill="#B1CC37"/>
<path d="M5.23628 6.91272V10.9618C5.23628 11.368 4.93066 11.6677 4.52317 11.6677C4.11567 11.6677 3.81005 11.368 3.81005 10.9618V7.46548H2.75736C2.73019 9.61654 2.37024 10.7553 1.5145 11.368C1.22926 11.5745 0.964386 11.6677 0.651974 11.6677C0.271646 11.6677 0.0067749 11.4213 0.0067749 11.055C0.0067749 10.7553 0.169773 10.5356 0.455018 10.4357C1.16813 10.1826 1.40584 9.40344 1.40584 7.32562V6.8994C1.40584 6.49317 1.71146 6.19348 2.12574 6.19348H4.51638C4.93066 6.2068 5.23628 6.50649 5.23628 6.91272Z" fill="black"/>
<path d="M11.8036 11.0017C11.8036 11.3813 11.5048 11.6676 11.0973 11.6676C10.7917 11.6676 10.5608 11.4945 10.4249 11.1615L10.3095 10.8751H8.35352L8.23806 11.1615C8.10223 11.4945 7.87132 11.6676 7.5657 11.6676C7.1582 11.6676 6.85938 11.3813 6.85938 11.0017C6.85938 10.9018 6.88654 10.7819 6.93408 10.662L8.65235 6.57299C8.7746 6.2733 9.0123 6.10681 9.33151 6.10681C9.65071 6.10681 9.88841 6.26664 10.0107 6.57299L11.7289 10.662C11.7833 10.7819 11.8036 10.9084 11.8036 11.0017ZM8.7746 9.76296H9.88842L9.33151 8.19128L8.7746 9.76296Z" fill="black"/>
<path d="M18.3847 6.8128V10.9618C18.3847 11.368 18.0791 11.6677 17.6716 11.6677C17.2641 11.6677 16.9585 11.368 16.9585 10.9618V8.65087L14.758 11.368C14.595 11.5745 14.3913 11.6677 14.1604 11.6677C13.7597 11.6677 13.4473 11.3613 13.4473 10.9618V6.8128C13.4473 6.40656 13.7529 6.10688 14.1604 6.10688C14.5679 6.10688 14.8735 6.40656 14.8735 6.8128V9.17698L16.9449 6.54642C17.1283 6.31999 17.2913 6.10022 17.6852 6.10022C18.0859 6.10688 18.3847 6.41322 18.3847 6.8128Z" fill="black"/>
<path d="M25.8623 6.83271V10.9684C25.8623 11.3746 25.5567 11.6743 25.1492 11.6743C24.7417 11.6743 24.4361 11.3746 24.4361 10.9684V9.09034L23.723 10.2025C23.526 10.5088 23.3426 10.6354 23.0778 10.6354C22.8129 10.6354 22.6295 10.5155 22.4326 10.2025L21.7194 9.09034V10.9684C21.7194 11.3746 21.4138 11.6743 21.0063 11.6743C20.5988 11.6743 20.2932 11.3746 20.2932 10.9684V6.83271C20.2932 6.41982 20.592 6.10681 21.0063 6.10681C21.2984 6.10681 21.4953 6.24666 21.7262 6.61961L23.0778 8.75069L24.4293 6.61961C24.6602 6.24666 24.8639 6.10681 25.1492 6.10681C25.5635 6.10681 25.8623 6.41316 25.8623 6.83271Z" fill="black"/>
<path d="M12.5916 0C12.5916 0 12.5033 3.95584 16.1979 5.09464C16.2047 5.09464 17.108 2.15107 12.5916 0Z" fill="black"/>
<path d="M13.7937 3.77603C14.2895 4.34876 14.9822 4.8549 15.9262 5.17456C13.7801 5.74729 12.4761 3.84263 12.4761 3.84263C12.9787 3.76271 13.4134 3.74273 13.7937 3.77603Z" fill="black"/>
<path d="M1.71 14.5174C1.71 14.1434 1.426 13.9254 0.958 13.9134V13.7734H0.86V13.9134C0.392 13.9234 0.108 14.1434 0.108 14.5174C0.108 14.8894 0.392 15.1094 0.86 15.1194V15.2614H0.958V15.1194C1.426 15.1094 1.71 14.8894 1.71 14.5174ZM0.958 15.0354V13.9974C1.366 14.0094 1.61 14.1954 1.61 14.5154C1.61 14.8374 1.366 15.0214 0.958 15.0354ZM0.208 14.5174C0.208 14.1934 0.45 14.0114 0.86 13.9974V15.0354C0.454 15.0214 0.208 14.8394 0.208 14.5174ZM3.57236 13.8174H3.07036V15.2174H3.17236V14.7594H3.57236C3.92436 14.7594 4.13636 14.5834 4.13636 14.2894C4.13636 13.9934 3.92436 13.8174 3.57236 13.8174ZM3.57236 14.6674H3.17236V13.9094H3.57236C3.87236 13.9094 4.03236 14.0474 4.03236 14.2894C4.03236 14.5294 3.87236 14.6674 3.57236 14.6674ZM5.56494 15.1254V14.5514H6.31094V14.4614H5.56494V13.9094H6.39894V13.8174H5.46294V15.2174H6.42894V15.1254H5.56494ZM9.34958 13.8174V15.1254H8.66158V13.8174H8.55958V15.1254H7.87158V13.8174H7.76958V15.2174H9.45158V13.8174H9.34958ZM13.8928 15.2174L13.8908 13.8174H13.8068L13.1808 14.8994L12.5548 13.8174H12.4688V15.2174H12.5688V14.0234L13.1548 15.0314H13.2048L13.7908 14.0194L13.7928 15.2174H13.8928ZM16.4625 15.2174H16.5725L15.9285 13.8174H15.8265L15.1825 15.2174H15.2925L15.4705 14.8234H16.2825L16.4625 15.2174ZM15.5105 14.7374L15.8765 13.9294L16.2445 14.7374H15.5105ZM18.3653 13.8174H17.8633V15.2174H17.9653V14.7594H18.3653C18.7173 14.7594 18.9293 14.5834 18.9293 14.2894C18.9293 13.9934 18.7173 13.8174 18.3653 13.8174ZM18.3653 14.6674H17.9653V13.9094H18.3653C18.6653 13.9094 18.8253 14.0474 18.8253 14.2894C18.8253 14.5294 18.6653 14.6674 18.3653 14.6674ZM21.2279 15.2174H21.3479L20.7759 14.4994L21.3119 13.8174H21.1979L20.6959 14.4614H20.3579V13.8174H20.2559V15.2174H20.3579V14.5534H20.6939L21.2279 15.2174ZM22.6997 15.1254V14.5514H23.4457V14.4614H22.6997V13.9094H23.5337V13.8174H22.5977V15.2174H23.5637V15.1254H22.6997ZM25.7823 13.8174H24.6723V13.9094H25.1763V15.2174H25.2783V13.9094H25.7823V13.8174Z" fill="black"/>
</g>
<defs>
<clipPath id="clip0_2_2553">
<rect width="29" height="19" fill="white"/>
</clipPath>
</defs>
</svg>
