<svg width="11" height="14" viewBox="0 0 11 14" fill="none" xmlns="http://www.w3.org/2000/svg">
<g >
<path d="M5.32422 6.84692C3.76766 6.84692 2.5057 5.3142 2.5057 3.42348C2.5057 1.53272 2.92002 0 5.32422 0C7.72842 0 8.14282 1.53272 8.14282 3.42348C8.14282 5.3142 6.88086 6.84692 5.32422 6.84692Z" fill="#333333"/>
<path d="M10.6474 12.0741C10.6483 11.9589 10.6492 12.0417 10.6474 12.0741V12.0741Z" fill="#333333"/>
<path d="M0.000915527 12.1642C-0.000599218 12.1326 0.000397325 11.9452 0.000915527 12.1642V12.1642Z" fill="#333333"/>
<path d="M0.00632 11.9359C0.0585194 8.64222 0.488681 7.7037 3.7804 7.10962C3.7804 7.10962 4.24376 7.70006 5.32376 7.70006C6.40376 7.70006 6.8672 7.10962 6.8672 7.10962C10.123 7.69722 10.5793 8.62182 10.6393 11.8289C10.6442 12.0908 10.6465 12.1045 10.6474 12.0741C10.6472 12.1311 10.647 12.2365 10.647 12.4202C10.647 12.4202 9.86328 14 5.32376 14C0.784321 14 0.000558853 12.4202 0.000558853 12.4202C0.000558853 12.3021 0.000478745 12.2201 0.000359535 12.1642C0.00123882 12.183 0.00300026 12.1466 0.00632 11.9359Z" fill="#333333"/>
</g>
</svg>
