<svg width="74" height="68" viewBox="0 0 74 68" fill="none" xmlns="http://www.w3.org/2000/svg">
<path d="M73.9652 53.214L73.6829 51.6904C73.503 50.7168 72.6528 50.0102 71.6615 50.0102C71.537 50.0102 71.4116 50.0216 71.2882 50.0443L65.5416 51.1L68.144 49.3603C68.8261 48.9044 69.1708 48.089 69.0221 47.28C68.9807 47.0585 68.9033 46.8459 68.7911 46.6469L68.0036 45.2523C67.7337 44.7732 67.2735 44.4172 66.7424 44.2761C66.4822 44.2067 66.2102 44.1913 65.9449 44.2258C66.2346 42.6264 66.3841 40.993 66.3841 39.3301C66.3841 38.5923 65.9404 37.9574 65.3066 37.6754C66.1348 35.7057 66.1913 33.4508 65.3727 31.3857C65.3063 31.2178 65.2078 31.0679 65.0801 30.9401C64.9535 30.8135 64.8054 30.7157 64.6373 30.6482C63.6564 30.2575 62.6254 30.0595 61.5731 30.0595C61.4385 30.0595 61.3046 30.063 61.171 30.0693C61.0209 27.0439 58.5169 24.6286 55.46 24.6286C55.0575 24.6286 54.665 24.6714 54.2859 24.7512C54.5492 23.1758 54.3941 21.5277 53.7806 19.9804C53.7147 19.8103 53.6157 19.6576 53.4811 19.5209C53.3516 19.3914 53.1997 19.2915 53.0312 19.2246C51.9745 18.8037 50.864 18.5904 49.7303 18.5904C48.0225 18.5904 46.3889 19.0705 44.9785 19.9632C44.4633 18.4706 43.6136 17.0694 42.4264 15.8795C42.0787 15.5311 41.6162 15.3392 41.124 15.3392C40.6319 15.3392 40.1694 15.5311 39.8212 15.8797L34.5729 21.1401C33.6016 20.2738 32.3236 19.7559 30.9364 19.7559C30.6216 19.7559 30.3037 19.7835 29.9917 19.8379C28.861 20.0347 27.8206 20.5881 27.0229 21.3986C26.0001 20.9051 24.8283 20.7367 23.7023 20.9327C23.4546 20.9758 23.2142 21.0365 22.981 21.1105V17.0569C22.981 14.2655 20.7374 11.9904 17.9621 11.9424V9.64353C18.8117 9.49655 19.4603 8.75612 19.4603 7.86523V2.65649C19.4603 1.66038 18.6499 0.849854 17.6537 0.849854H8.83863C7.84238 0.849854 7.032 1.66038 7.032 2.65649V7.86523C7.032 8.75612 7.68065 9.49655 8.5302 9.64353V11.9422C5.75492 11.99 3.51152 14.265 3.51152 17.0567V48.6938C1.34731 50.6483 0 53.3755 0 56.3913C0 62.3237 5.20672 67.1501 11.6068 67.1501L54.993 67.1374C56.4739 67.1368 57.8666 66.486 58.8139 65.352C59.7365 64.2481 60.1287 62.8142 59.9028 61.4001L68.5684 62.9574C68.6883 62.979 68.8112 62.99 68.933 62.99C69.3652 62.99 69.7793 62.8573 70.1299 62.6067C70.5807 62.2846 70.8858 61.7862 70.9672 61.2394L71.2019 59.6644C71.2357 59.4388 71.2319 59.2116 71.1908 58.9889C71.0416 58.1836 70.4284 57.5446 69.6284 57.3614L66.574 56.6607L72.3149 55.606C72.8563 55.5066 73.326 55.2026 73.6376 54.7501C73.9487 54.2987 74.0649 53.7533 73.9652 53.214ZM61.5731 32.2272C62.2257 32.2272 62.8672 32.3305 63.4841 32.5342C64.0353 34.2127 63.8289 36.0233 62.9658 37.5189H60.0457L60.9775 36.5849C61.4004 36.1612 61.3995 35.4748 60.9756 35.0519C60.5517 34.629 59.8653 34.6297 59.4427 35.0536L58.9497 35.5478C58.7186 34.7868 58.3151 34.1055 57.7847 33.5466C58.8605 32.6923 60.1813 32.2272 61.5731 32.2272ZM55.46 26.7963C57.4177 26.7963 59.0103 28.3936 59.0103 30.3571C59.0103 30.3935 59.0085 30.4295 59.0075 30.4656C57.8649 30.8372 56.8117 31.458 55.9134 32.301C55.7705 32.2468 55.6255 32.1965 55.4767 32.1553C55.1595 30.4424 54.0052 29.0693 52.4802 28.428C53.1131 27.4475 54.2113 26.7963 55.46 26.7963ZM49.7301 20.7581C50.4664 20.7581 51.1899 20.8772 51.8871 21.1128C52.4474 22.7789 52.333 24.5686 51.619 26.1189C51.032 26.6535 50.5558 27.3082 50.2303 28.0442C50.0368 28.0554 49.8433 28.0768 49.6521 28.1101C48.8027 28.2579 48.0106 28.6265 47.3478 29.161C47.1218 28.7476 46.845 28.3662 46.5279 28.0228L49.0137 25.5314C49.4366 25.1076 49.4357 24.4212 49.0118 23.9985C48.588 23.5756 47.9017 23.5763 47.4788 24.0002L44.7619 26.7233C44.2449 26.4789 43.6861 26.3089 43.0989 26.2294C43.3526 24.9359 43.9803 23.7171 44.9512 22.7438C46.2287 21.4633 47.9259 20.7581 49.7301 20.7581ZM41.4239 37.5189H40.4843C40.3261 37.1162 39.9348 36.8308 39.4759 36.8308C39.0171 36.8308 38.6258 37.1164 38.4676 37.5189H37.3622C37.6189 37.1009 37.567 36.5471 37.2047 36.1854C36.7809 35.7625 36.0945 35.7633 35.6716 36.187L34.6499 37.2109C34.5582 37.3028 34.4876 37.4076 34.4357 37.5189H32.2295C31.4032 36.2509 30.8989 34.7543 30.8392 33.1442H48.0364C47.9767 34.7543 47.4724 36.2509 46.6461 37.5189H44.3502C44.2985 37.4076 44.2277 37.3027 44.1361 37.2107L43.1145 36.1869C42.6915 35.7633 42.0054 35.7621 41.5816 36.1852C41.219 36.5468 41.1671 37.1007 41.4239 37.5189ZM38.9029 30.9763C39.3115 29.462 40.6928 28.3446 42.3297 28.3446C43.9668 28.3446 45.3481 29.4622 45.7567 30.9763H38.9029ZM41.1196 17.6475C42.1506 18.7618 42.8324 20.0849 43.1667 21.4755C42.6133 22.0769 42.1535 22.7415 41.7909 23.4487C41.6263 23.3478 41.4333 23.2887 41.2262 23.2887H39.7818C39.1831 23.2887 38.6978 23.774 38.6978 24.3727C38.6978 24.9713 39.1831 25.4566 39.7818 25.4566H41.0489C40.9776 25.756 40.9223 26.0589 40.8821 26.3641C40.4517 26.4772 40.0406 26.6382 39.6559 26.8431C38.9334 25.5963 37.737 24.6671 36.3194 24.2943C36.319 24.2913 36.3184 24.2883 36.3178 24.2852C36.2328 23.7947 36.0845 23.3293 35.8823 22.8967L41.1196 17.6475ZM21.5244 27.4288C21.4608 27.251 21.4127 27.0686 21.381 26.8856C21.0701 25.0933 22.2784 23.3809 24.0739 23.0683C24.2632 23.0353 24.4556 23.0185 24.6455 23.0185C25.3596 23.0185 26.0421 23.2463 26.6189 23.6772C26.8576 23.8555 27.1593 23.9276 27.453 23.8768C27.7467 23.8258 28.0064 23.6562 28.1712 23.4078C28.6801 22.6402 29.4587 22.1308 30.3634 21.9733C30.5532 21.9402 30.746 21.9236 30.9364 21.9236C32.5424 21.9236 33.9073 23.0726 34.1816 24.6559C34.2132 24.8373 34.2293 25.0264 34.2296 25.2179C34.2306 25.7789 34.6598 26.2466 35.2188 26.2958C36.4307 26.4023 37.4623 27.165 37.9406 28.2394C37.3003 29.0079 36.8565 29.9462 36.688 30.9763H30.5061C29.7375 30.9763 29.078 31.4508 28.8029 32.1222C27.4429 31.196 25.8401 30.6969 24.1603 30.6969C23.108 30.6969 22.0771 30.895 21.0954 31.2858C20.9289 31.3523 20.78 31.4505 20.6531 31.5774C20.5245 31.706 20.4258 31.8567 20.361 32.0221C20.1116 32.6512 19.9452 33.298 19.8553 33.9488C19.4668 33.5066 19.1931 32.9566 19.0861 32.3395C18.8312 30.8687 19.6011 29.4043 20.9578 28.7782C21.4677 28.5429 21.7136 27.9573 21.5244 27.4288ZM24.7558 37.2224L25.0515 37.5189H22.4481C21.8636 36.1629 21.7748 34.6194 22.2493 33.1718C22.8671 32.9679 23.5083 32.8647 24.1603 32.8647C25.7937 32.8647 27.3302 33.5031 28.4866 34.6621C28.6403 34.8163 28.7836 34.9779 28.9181 35.1448C29.1018 35.9764 29.3841 36.7709 29.7477 37.5187H28.1141L26.2906 35.691C25.8675 35.2674 25.1811 35.2662 24.7577 35.6893C24.3338 36.1123 24.3329 36.7987 24.7558 37.2224ZM20.1395 37.5189H16.2752C16.4474 36.4689 17.079 35.5738 17.9558 35.046C18.4748 35.7413 19.1522 36.3035 19.9327 36.6844C19.9879 36.9656 20.0557 37.2444 20.1395 37.5189ZM9.19995 3.01781H17.2924V7.5039H9.19995V3.01781ZM15.7942 9.67186V11.94H10.6983V9.67186H15.7942ZM5.67962 21.4527H12.7187C13.3175 21.4527 13.8027 20.9674 13.8027 20.3687C13.8027 19.7701 13.3175 19.2847 12.7187 19.2847H5.67962V17.0567C5.67962 15.4307 6.99832 14.1079 8.61923 14.1079H17.8732C19.4943 14.1079 20.813 15.4307 20.813 17.0567V19.2847H18.789C18.1902 19.2847 17.705 19.7701 17.705 20.3687C17.705 20.9674 18.1902 21.4527 18.789 21.4527H20.813V22.4148C19.571 23.6325 18.926 25.4182 19.2445 27.255C19.2451 27.2586 19.2458 27.2624 19.2464 27.2662C17.5074 28.4593 16.5808 30.5804 16.9498 32.7098C16.9714 32.8341 16.9984 32.9563 17.0279 33.0773C16.4863 33.3759 16 33.7615 15.5832 34.2127H5.67962V21.4527ZM5.67948 36.3806H14.3244C14.2094 36.7459 14.1282 37.1262 14.0886 37.5189H13.9059C12.9082 37.5189 12.0963 38.3313 12.0963 39.3298C12.0963 41.0511 12.2563 42.7408 12.5664 44.3939C12.2549 44.3689 11.9355 44.3555 11.6106 44.3555C10.2997 44.3555 9.05065 44.5634 8.09401 44.9413C6.63063 45.5191 6.22609 46.3396 6.13778 46.9073C5.9827 46.9845 5.83037 47.066 5.67948 47.1494V36.3806ZM19.4057 49.6969C19.7961 50.0092 20.0347 50.2747 20.173 50.4662C20.16 50.4664 20.1464 50.4665 20.1327 50.4665C19.5192 50.4665 18.4168 50.2192 17.1633 49.5253C16.6966 49.2668 16.2666 48.9747 15.9198 48.6808C15.5154 48.3382 14.9224 48.3384 14.5182 48.681C14.1714 48.9751 13.7415 49.2671 13.2753 49.525C12.0215 50.2192 10.9191 50.4665 10.3058 50.4665C10.2917 50.4665 10.2783 50.4664 10.2651 50.4662C10.4033 50.2747 10.6419 50.0091 11.0325 49.6966C11.3737 49.4234 11.5175 48.9719 11.3971 48.5518C11.2766 48.1315 10.9155 47.8246 10.4812 47.7738C9.4234 47.6498 8.75451 47.3805 8.44131 47.1845C8.83371 46.9401 9.82577 46.5234 11.611 46.5234C13.0896 46.5234 14.1702 46.8343 14.6885 47.1254C15.0182 47.3104 15.4201 47.3104 15.7498 47.1255C16.2684 46.8345 17.3492 46.5236 18.8277 46.5236C20.6131 46.5236 21.605 46.9404 21.9973 47.1847C21.6842 47.3808 21.0152 47.6499 19.9571 47.7739C19.5228 47.8249 19.1616 48.1316 19.0412 48.5521C18.9204 48.9724 19.0642 49.4239 19.4057 49.6969ZM17.2373 62.8905L17.2746 63.0914C17.4035 63.7876 17.6754 64.4266 18.0552 64.9822H11.6068C6.40228 64.9822 2.16796 61.1284 2.16796 56.3913C2.16796 53.1539 4.1463 50.3304 7.05946 48.8663C7.39404 49.116 7.81116 49.3314 8.30603 49.5051C8.10976 49.8403 7.97303 50.2007 7.9408 50.5766C7.89802 51.0764 8.05094 51.5511 8.37179 51.9133C8.7957 52.392 9.44638 52.6346 10.3058 52.6346C11.451 52.6346 12.9537 52.1812 14.3253 51.4219C14.6411 51.2471 14.9397 51.0626 15.2192 50.8698C15.4986 51.0624 15.7972 51.247 16.1131 51.422C17.4847 52.1812 18.9874 52.6345 20.1327 52.6346H20.1328C20.9919 52.6346 21.6426 52.392 22.0664 51.9134C22.3874 51.5512 22.5404 51.0766 22.4975 50.5766C22.4653 50.2007 22.3285 49.8403 22.1323 49.5051C22.6271 49.3312 23.0444 49.1159 23.379 48.8663C25.6893 50.0274 27.4108 52.0438 28.0246 54.4434L20.358 57.3559C18.1139 58.2086 16.8014 60.5361 17.2373 62.8905ZM57.15 63.9621C56.6156 64.6021 55.8289 64.9692 54.992 64.9695L53.8543 64.9699L53.1435 61.1319C53.0344 60.5432 52.4691 60.154 51.8801 60.2634C51.2916 60.3724 50.9027 60.9379 51.0117 61.5266L51.6496 64.9706L47.9199 64.9721L47.4393 62.3767C47.3302 61.788 46.7648 61.3993 46.176 61.5082C45.5874 61.6172 45.1985 62.1828 45.3075 62.7714L45.715 64.9729L37.0396 64.9762L36.3866 61.4514C36.2773 60.8628 35.7122 60.474 35.1233 60.5831C34.5346 60.6921 34.1458 61.2578 34.2548 61.8464L34.8348 64.9771L22.1675 64.982C22.1672 64.982 22.167 64.982 22.1667 64.982C20.8121 64.982 19.6513 64.0209 19.4058 62.6961L19.3686 62.4952C19.1236 61.1719 19.8633 59.8629 21.1275 59.3825L25.3878 57.764L25.7052 59.477C25.8019 59.9989 26.2575 60.3637 26.7697 60.3637C26.8353 60.3637 26.9018 60.3576 26.9686 60.3453C27.5571 60.2362 27.9459 59.6707 27.8368 59.082L27.4475 56.9815L33.7715 54.5791C34.3311 54.3665 34.6125 53.7404 34.3999 53.1808C34.1873 52.621 33.5605 52.3398 33.0017 52.5524L30.0589 53.6703C29.2334 50.7475 27.1125 48.3059 24.3001 46.9072C24.2118 46.3394 23.8072 45.5189 22.344 44.9411C21.3874 44.5633 20.1383 44.3553 18.8274 44.3553C17.9253 44.3553 17.0637 44.4549 16.3032 44.6363V43.9816C16.3032 43.3829 15.818 42.8976 15.2192 42.8976C14.9662 42.8976 14.734 42.9849 14.5495 43.1303C14.3785 41.9996 14.2828 40.8512 14.2669 39.6866H49.574C50.1728 39.6866 50.658 39.2012 50.658 38.6026C50.658 38.0039 50.1728 37.5186 49.574 37.5186H49.1305C49.8207 36.097 50.2107 34.5031 50.2107 32.8186C50.2107 31.8622 49.4789 31.0744 48.5464 30.9849C48.9524 30.6021 49.4591 30.3439 50.0239 30.2455C50.1894 30.2168 50.3574 30.2022 50.5233 30.2022C51.9228 30.2022 53.112 31.2033 53.3509 32.5824C53.3785 32.7421 53.3927 32.9069 53.3928 33.0724C53.3935 33.6337 53.8228 34.1017 54.382 34.1509C55.6774 34.2646 56.7372 35.2389 56.9594 36.52C57.0184 36.8607 57.011 37.1969 56.9519 37.5186H55.7888C55.19 37.5186 54.7049 38.0039 54.7049 38.6026C54.7049 39.2012 55.19 39.6866 55.7888 39.6866H64.2138C64.1869 41.675 63.9308 43.6174 63.4532 45.5019L57.5786 48.9698C57.2193 47.7193 56.3842 46.6586 55.2336 46.0145C53.943 45.2923 52.4094 45.1794 51.0263 45.7048L38.9275 50.3012C38.3677 50.5138 38.0864 51.1399 38.299 51.6995C38.5116 52.2593 39.1383 52.5402 39.6972 52.3279L41.2911 51.7225L41.786 54.3944C41.8827 54.9163 42.3382 55.2813 42.8506 55.2813C42.9161 55.2813 42.9826 55.2752 43.0493 55.2629C43.6379 55.1539 44.0268 54.5884 43.9178 53.9997L43.3511 50.94L51.7959 47.7318C52.5784 47.4347 53.4453 47.4984 54.1747 47.9067C54.9029 48.3142 55.4073 49.0166 55.5587 49.8335L57.7517 61.6727C57.9029 62.4892 57.6836 63.3235 57.15 63.9621ZM61.0177 55.4773C60.512 55.5702 60.1412 56.0055 60.1298 56.5196C60.1185 57.0337 60.47 57.4849 60.9711 57.5998L69.0417 59.451L68.8401 60.8036L59.4841 59.1223L58.0215 51.226L66.1708 46.4155L66.8496 47.6175L59.976 52.2123C59.5487 52.498 59.3807 53.0447 59.5741 53.521C59.7673 53.9974 60.2689 54.2726 60.7744 54.1797L71.5717 52.1963L71.8122 53.4941L61.0177 55.4773Z" fill="#333333" opacity="0.3"/>
</svg>
