<svg width="99" height="173" viewBox="0 0 99 173" fill="none" xmlns="http://www.w3.org/2000/svg">
<path opacity="0.2" d="M46.44 27.96C34.6 27.96 24.76 33.08 16.92 43.32L0.600001 24.84C5.08 17.48 11.56 11.56 20.04 7.07999C28.52 2.59999 37.88 0.359994 48.12 0.359994C63.8 0.359994 76.04 4.43999 84.84 12.6C93.96 20.6 98.52 30.6 98.52 42.6C98.52 53.16 96.44 61.72 92.28 68.28C88.12 74.68 82.28 80.92 74.76 87C73.8 87.8 72.52 88.84 70.92 90.12C69.48 91.4 68.28 92.44 67.32 93.24C66.52 93.88 65.4 94.84 63.96 96.12C62.68 97.4 61.72 98.44 61.08 99.24C60.44 99.88 59.56 100.92 58.44 102.36C57.48 103.64 56.84 104.76 56.52 105.72C56.2 106.68 55.72 107.96 55.08 109.56C54.6 111.16 54.44 112.6 54.6 113.88C54.92 115.16 55.08 116.76 55.08 118.68L29.88 118.92C28.92 113 28.84 107.8 29.64 103.32C30.6 98.68 32.6 94.52 35.64 90.84C38.84 87 41.4 84.28 43.32 82.68C45.4 80.92 48.68 78.36 53.16 75C63.72 67.64 69 58.84 69 48.6C69 42.84 66.84 37.96 62.52 33.96C58.2 29.96 52.84 27.96 46.44 27.96ZM24.6 153C24.6 148.36 26.36 144.28 29.88 140.76C33.56 137.08 38.12 135.24 43.56 135.24C48.52 135.24 52.68 137.08 56.04 140.76C59.56 144.28 61.32 148.36 61.32 153C61.32 158.28 59.64 162.84 56.28 166.68C52.92 170.36 48.68 172.2 43.56 172.2C38.12 172.2 33.56 170.36 29.88 166.68C26.36 162.84 24.6 158.28 24.6 153Z" fill="white"/>
</svg>
