<svg width="11" height="11" viewBox="0 0 11 11" fill="none" xmlns="http://www.w3.org/2000/svg">
<path d="M6.72933 5.96097L10.7911 2.19666C10.9028 2.09304 10.9644 1.9548 10.9646 1.80738C10.9646 1.65989 10.903 1.52148 10.7911 1.41802L10.4351 1.08824C10.3232 0.984376 10.174 0.92749 10.0148 0.92749C9.85582 0.92749 9.70665 0.984376 9.59474 1.08824L5.53302 4.8523L1.47112 1.08824C1.35939 0.984376 1.21013 0.92749 1.05097 0.92749C0.891993 0.92749 0.742729 0.984376 0.631003 1.08824L0.274891 1.41802C0.0431354 1.6328 0.0431354 1.98213 0.274891 2.19666L4.3367 5.96097L0.274891 9.72511C0.163076 9.8289 0.101516 9.96714 0.101516 10.1146C0.101516 10.262 0.163076 10.4002 0.274891 10.5039L0.630914 10.8337C0.742641 10.9375 0.891993 10.9945 1.05088 10.9945C1.21004 10.9945 1.3593 10.9375 1.47103 10.8337L5.53293 7.06955L9.59466 10.8337C9.70656 10.9375 9.85573 10.9945 10.0147 10.9945H10.0149C10.174 10.9945 10.3231 10.9375 10.435 10.8337L10.791 10.5039C10.9027 10.4003 10.9643 10.262 10.9643 10.1146C10.9643 9.96714 10.9027 9.8289 10.791 9.72519L6.72933 5.96097Z" fill="#333333"/>
</svg>
